<svg version="1.1" xmlns="http://www.w3.org/2000/svg" viewBox="0 0 82.53073246037366 46.74502680830301" width="82.53073246037366" height="46.74502680830301">
  <!-- svg-source:excalidraw -->
  
  <defs>
    <style class="style-fonts">
      @font-face {
        font-family: "Virgil";
        src: url("https://excalidraw.com/Virgil.woff2");
      }
      @font-face {
        font-family: "Cascadia";
        src: url("https://excalidraw.com/Cascadia.woff2");
      }
    </style>
  </defs>
  <g stroke-linecap="round" transform="translate(27.89285282603589 -7.8928528260348685) rotate(89.99999999999994 13.372513404151391 31.265366230186828)"><path d="M6.69 0 M6.69 0 C10.99 0.09, 13.22 1.21, 20.06 0 M6.69 0 C9.9 0.25, 13.47 0.56, 20.06 0 M20.06 0 C25.17 -0.69, 28.12 2.74, 26.75 6.69 M20.06 0 C25.72 0.42, 25.51 1.76, 26.75 6.69 M26.75 6.69 C26.89 25.11, 27.67 41.79, 26.75 55.84 M26.75 6.69 C27.4 23.14, 26.19 39.87, 26.75 55.84 M26.75 55.84 C25.5 61.95, 23.34 63.87, 20.06 62.53 M26.75 55.84 C26.97 61.35, 24.47 63.46, 20.06 62.53 M20.06 62.53 C16.74 61.65, 12.77 62.38, 6.69 62.53 M20.06 62.53 C14.37 61.96, 9.55 62.8, 6.69 62.53 M6.69 62.53 C4.01 64.31, 0.41 60.33, 0 55.84 M6.69 62.53 C4.29 61.9, 1.7 62.18, 0 55.84 M0 55.84 C-0.71 36.81, 0.89 16.47, 0 6.69 M0 55.84 C-1.25 43.38, -0.18 33.67, 0 6.69 M0 6.69 C-1.06 2.05, 2.09 1.23, 6.69 0 M0 6.69 C-1.16 2.59, 0.99 1.33, 6.69 0" stroke="#495057" stroke-width="1" fill="none"></path></g><g stroke-linecap="round"><g transform="translate(56.09786145706721 23.081751564967817) rotate(89.99999999999994 12.244801116854603 0.37145278975367546)"><path d="M-0.7 1.16 C3.61 0.97, 20.89 -0.3, 25.19 -0.42 M1.13 0.72 C5.34 0.64, 20.41 1.29, 24.27 0.9" stroke="#495057" stroke-width="1" fill="none"></path></g></g><mask></mask><g stroke-linecap="round"><g transform="translate(5.038369453872519 22.758512463987245) rotate(89.99999999999994 12.249295506983742 0.24482549515551)"><path d="M0.76 -0.63 C4.7 -0.63, 20.94 0.64, 24.8 0.63 M-0.31 1.65 C3.35 1.24, 19.26 -0.93, 23.68 -1.16" stroke="#495057" stroke-width="1" fill="none"></path></g></g><mask></mask><g transform="translate(23.906859685954828 11.203892405212173) rotate(360 17 10)"><text x="17" y="14" font-family="Virgil, Segoe UI Emoji" font-size="16px" fill="#495057" text-anchor="middle" style="white-space: pre;" direction="ltr">coke</text></g></svg>