<svg version="1.1" xmlns="http://www.w3.org/2000/svg" viewBox="0 0 389.7527430801597 537.9170473322993" width="389.7527430801597" height="537.9170473322993">
  <!-- svg-source:excalidraw -->
  
  <defs>
    <style class="style-fonts">
      @font-face {
        font-family: "Virgil";
        src: url("https://excalidraw.com/Virgil.woff2");
      }
      @font-face {
        font-family: "Cascadia";
        src: url("https://excalidraw.com/Cascadia.woff2");
      }
    </style>
  </defs>
  <g transform="translate(44.94601620823835 26.980035153020253) rotate(0 156.2927097616477 20.350613250214337)"><text x="0" y="28.70122650042908" font-family="Virgil, Segoe UI Emoji" font-size="32.560981200343264px" fill="#495057" text-anchor="start" style="white-space: pre;" direction="ltr">VENDING MACHINE</text></g><g stroke-linecap="round" transform="translate(13.214064872726794 10) rotate(0 181.44789712593064 254.86377738147576)"><path d="M-1.03 -0.4 C137.4 2.51, 271.89 1.42, 361.92 -0.19 M-0.44 0.4 C139.63 0.35, 278.67 0.93, 362.79 0.48 M362.68 0.68 C360.92 153.87, 361.98 308.04, 362.19 509.07 M362.89 0.39 C362.51 103.51, 362.53 207.51, 362.9 509.81 M363.17 509.69 C249.42 508.22, 137.11 508.61, -0.05 509.83 M363.06 510.01 C242.48 510.78, 122.99 510.8, 0.24 510.19 M0.26 510.46 C0.78 337.73, 0.43 165.98, -0.11 -0.07 M0.12 509.59 C0.45 355.8, 0.13 201.39, 0.06 -0.21" stroke="#495057" stroke-width="1" fill="none"></path></g><g stroke-linecap="round" transform="translate(38.09050384914457 94.25149333425179) rotate(0 157.12783105023667 79.19759480591074)"><path d="M0 0 C0 0, 0 0, 0 0 M0 0 C0 0, 0 0, 0 0 M0.12 6.68 C1.51 3.82, 3.26 1.4, 4.79 0.7 M-0.42 6.48 C1.66 4.55, 2.86 2.72, 4.94 0.39 M-0.73 10.47 C1.72 10.68, 3.85 7.37, 11.08 -1.32 M0.73 11.83 C2 9.02, 5.36 7.1, 11.32 -0.78 M1.57 17.02 C3.26 13.95, 9.67 8.13, 16.94 1.79 M0.42 18.66 C4.87 13.37, 9.71 7.34, 16.38 0.56 M1.8 22.83 C3.57 19.63, 12.16 13.37, 20.66 0.23 M-0.52 24.17 C6.54 16.09, 12.2 9.54, 21.41 0.47 M0.83 30.96 C7.84 19.31, 19.94 9.2, 27.67 2.08 M-0.36 30.19 C6.02 23.89, 12.97 15.66, 26.08 0.65 M-0.26 38.27 C8.01 27.18, 18.34 14.64, 30.79 -0.46 M0.28 36.21 C7.39 29.4, 14.96 20.01, 31.9 -0.76 M1.47 43.43 C10.06 32.1, 14.97 23.81, 36.99 0.74 M-0.44 41.53 C8.41 32.36, 17.16 23.32, 36.1 0.71 M0.76 47.3 C16.47 31.15, 32.07 13.39, 44.5 1.85 M-0.39 49.5 C15.42 30.88, 31.02 12.49, 42.05 -0.35 M0.63 53.76 C12.85 42.25, 23.87 26.65, 49.41 -0.76 M0.13 54.11 C10.44 41.14, 22.39 28.85, 46.98 0.83 M-1.03 61.89 C10.58 49.1, 22.43 37.66, 54.87 1.54 M0.23 60.02 C18.56 40.49, 36.33 18.85, 52.35 -0.93 M1.02 66.83 C11.1 54.48, 24.03 37.51, 57.63 1.86 M0.06 67.19 C14.8 49.05, 30.95 30.95, 57.65 -0.79 M1.3 72.1 C16.98 55.29, 28.99 38.53, 65.22 -2.18 M-0.06 73.09 C20.82 49.24, 41.46 24.19, 64.7 0.01 M1.49 78.08 C23.59 52.35, 47.43 25.25, 70.53 -0.28 M-0.57 78.88 C18.01 57.33, 36.31 38.3, 69.47 0.13 M-1.1 86.77 C29.74 53.63, 58.66 19.58, 73 -1.32 M0.98 84.12 C25.99 54.77, 52.16 23.68, 74.4 0.04 M1.1 90.02 C24.33 62.52, 48.82 35.44, 81.18 -1.27 M-0.24 90.65 C21.05 66, 43.66 42.05, 80.19 -0.02 M-1.59 98.33 C26.05 68.63, 50.4 39.8, 85.88 0.95 M-0.68 97.36 C19.4 76.9, 39.31 53.47, 84.15 -0.15 M1.78 105.24 C21.79 81.32, 40.84 56.09, 90.82 -0.38 M0.64 104.29 C19.54 80.64, 41.37 55.44, 89.97 -0.79 M0.67 111.74 C35.26 67.77, 73.04 27.08, 93.72 -1.73 M-0.7 108.9 C39.89 65.55, 76.41 21.05, 96.07 -0.81 M-0.39 115.1 C23.67 92.34, 45.95 66.6, 100.92 1.92 M1.05 114.7 C22.75 91.4, 43.4 66.95, 101.38 0.4 M0.71 121.04 C40.92 74.41, 83.22 27.43, 104.54 1.08 M-0.29 121.2 C31.76 86.84, 63.02 50.61, 105.68 -1.07 M0.23 128.56 C33.76 89.2, 65.35 51.39, 113.1 -0.01 M0.74 128.61 C43.83 79.36, 85.53 29.78, 111.39 0.21 M-1.58 134.34 C46.96 82.09, 92.47 30.29, 115.93 1.39 M0.4 134.03 C44.02 84.94, 86.28 37.31, 117.25 -0.22 M1.43 141.12 C33.26 102.87, 67.24 61.77, 121.17 -1.01 M0.81 139.61 C28.34 110.87, 55.47 78.57, 121.38 -0.6 M1.85 146.56 C27.91 116.21, 56.27 83.88, 125.6 1.77 M-0.38 145.27 C36.79 104.51, 70.57 64.94, 126.41 1.29 M1.1 151.47 C29.69 116.28, 61.27 78.3, 131.3 -0.99 M-0.16 152.6 C41.97 103.41, 85.56 53.68, 133.07 0.71 M-1.25 160.01 C32.33 120.72, 64.27 84.8, 139.28 -0.09 M-0.58 159.55 C39.79 112.5, 79.8 65.34, 138.18 0.34 M5.67 159.7 C44.15 115.99, 83.63 70.38, 141.46 -1.32 M5.6 158.81 C57.21 97.27, 111.25 37.53, 142.88 -0.58 M9.13 158.21 C56.15 106.32, 103.16 51.68, 146.63 1.21 M10.53 159.54 C51.62 112.34, 93.62 64.83, 147.98 0.2 M17.68 158.13 C63.1 101.79, 110.97 45.63, 153.8 -0.52 M16.23 158.68 C44.3 125.49, 72.04 92.76, 153.19 0.08 M22.22 160.41 C71.7 97.48, 123.58 37.47, 157.51 0.67 M21.41 158.31 C71.6 99.2, 125.18 40.56, 158.12 1.06 M25.9 156.58 C64.72 116.94, 99 77.85, 163.53 -1.73 M25.97 157.76 C71.94 107.57, 114.79 56.53, 164.88 0.14 M31.68 157.93 C78.93 103.4, 126.06 47.96, 169.41 1.22 M31.94 157.84 C62.13 123.47, 92.82 85.97, 168.55 0.62 M36.87 159.52 C67.27 122.87, 97.75 88.88, 176.63 1.44 M37.33 158.29 C83.84 104.2, 130.81 49.47, 175.66 0.68 M41.92 158.69 C90.65 100.6, 141.6 42.85, 181.76 -0.56 M42.38 158.44 C91.12 101.58, 139.85 45.49, 180.49 -0.63 M48.47 158.01 C89.66 109.51, 134.1 63.1, 185.1 0.17 M48.74 158.2 C75.27 124.61, 104.72 92.56, 185.37 -0.66 M54 158.99 C94.8 111.55, 135.29 63.56, 192.39 -0.3 M53.35 158.73 C91.74 114.36, 128.68 71.7, 191.08 0.48 M56.98 157.98 C90.7 119.62, 123.6 82.36, 195.23 -1.24 M58.14 158.13 C108.98 101.43, 159.62 41.55, 195.97 -0.89 M62.08 157.58 C113.96 99.26, 166.17 43.39, 201.04 0.02 M64.04 159.19 C106.5 107.99, 150.48 56.92, 200.48 -0.72 M67.67 158.98 C121.04 97.88, 170.72 41.23, 206.42 0.44 M69.99 157.95 C120.94 98.29, 171.86 39.29, 206.25 -0.43 M74.6 159.25 C114.92 111.44, 158.28 60.75, 212.95 -0.86 M74.01 158.6 C103.9 125.7, 133.1 92.07, 211.85 0.89 M80.7 157.78 C121.12 113.66, 159.8 66.95, 218.24 0.34 M79.38 158.46 C119.18 112.39, 160.84 64.76, 217.14 0.35 M86.06 157.13 C112.39 125.72, 142.87 92.99, 221.13 0.05 M84.96 159.36 C126.84 110.66, 168.93 63.48, 222.53 0.81 M91.08 158.89 C121.04 122.48, 154.85 83.78, 226.88 -0.4 M89.72 157.92 C130.86 111.65, 174.02 63.51, 228.12 -0.57 M94.64 157.44 C139.51 109.12, 183.73 58.02, 234.68 -0.61 M95.4 158.67 C142.45 104.14, 190.57 48.3, 232.87 0.78 M102.81 156.98 C137.31 114.56, 178.88 70.81, 238.66 -0.95 M100.39 157.31 C138.42 113.75, 176.55 69.23, 238.42 0.89 M105.75 158.29 C158.75 98.64, 208.88 39.55, 243.42 1.58 M105.97 159.1 C147.01 110.34, 189.51 61.39, 244.47 0.01 M110.56 158.78 C159.6 102.5, 208.56 48.66, 247.87 -0.22 M111.31 159.34 C141.02 125.56, 170.5 91, 249.57 -0.42 M117.92 156.72 C160.74 106.53, 206.29 54.77, 253.22 1.17 M115.89 157.99 C165.97 103.02, 214.35 47.78, 254.85 0.4 M120.01 158.85 C175.66 99.53, 228.5 38.69, 261.16 0.52 M122.1 158.33 C151.76 122.99, 181.48 90, 259.73 -0.23 M126.28 159.34 C181.37 93.72, 236.65 31.51, 264.85 0.47 M126.53 158.09 C164.62 116.14, 200.61 75.51, 264.56 -0.45 M133.23 158.3 C183.28 96.76, 237.85 34.61, 271.85 1.75 M131.66 158.94 C173.37 110.27, 213.81 64.83, 269.84 -0.25 M136.75 157.59 C192.2 96.61, 245.4 33.48, 277.44 -0.98 M137.84 158.67 C169.83 119.73, 202.67 82.94, 275.38 -0.46 M144.3 158.17 C171.41 124.03, 199.52 92.61, 280.49 -0.63 M142.54 158.93 C193.83 99.5, 245.32 42.72, 281.21 -0.33 M148.34 159.48 C181 118.92, 215.34 78.26, 285.03 0.55 M148.34 159.12 C185.01 116.81, 220.77 74.25, 286.8 -0.1 M152.74 160.25 C196.28 111.55, 237.23 62.36, 291.36 -1.18 M153.25 158.83 C189.18 116.4, 226.73 74.47, 291.97 -0.26 M160.23 157.9 C189.97 123.67, 221.79 86.98, 297.68 -1.04 M158.72 158.87 C210.6 99.44, 261.42 42.07, 297.8 -0.66 M163.56 159.96 C192.41 124.66, 222.61 89.59, 301.79 0.97 M163.53 158.35 C209.26 107.3, 255.38 56.93, 302.35 0.27 M168.24 158.77 C220.94 100.8, 269.28 43.51, 306.22 -0.56 M169.99 157.46 C218.3 100.4, 266.42 43.78, 306.82 -0.68 M173.1 156.98 C215.18 110.62, 258.66 63.39, 312.86 -1.44 M174.35 158.16 C230.48 94.23, 284.99 30.7, 312.99 -0.12 M178.92 159.93 C233.34 99.3, 285.19 38.02, 315.55 3.11 M180 158.04 C215.8 117.26, 251.59 76.93, 316.87 2.76 M186.85 158.79 C230.85 106.18, 274.44 55.5, 315.54 8.62 M186.27 158.09 C218.87 119.71, 250.88 82.88, 316.48 8.47 M192.1 158.14 C216.61 126.33, 245.39 97.96, 317.45 13.47 M190.44 158.61 C231.35 111.96, 272.32 66.4, 317.11 13.43 M197.64 159.47 C243.71 101.65, 288.5 48.7, 317.26 19.03 M195.33 159.23 C235.4 111.76, 275.64 64.69, 316.22 20.49 M199.97 159.96 C230.86 123.53, 260.33 90.54, 316.71 24.56 M201.86 158.85 C245.82 105.69, 291.31 55.73, 316.18 26.11 M207.65 156.87 C246.41 117.47, 281.98 73.44, 317.05 31.77 M206.79 157.58 C233.24 129.72, 259.13 100.28, 315.4 32.61 M214.34 159.61 C246.74 120.16, 278.9 83.7, 315.58 37.65 M213 158.62 C244.75 122.32, 277.46 85.58, 316.02 38.9 M217.48 157.89 C247.74 124.82, 276.85 89.95, 316.21 42.63 M217.38 158.28 C241.41 129.38, 264.24 102.22, 315.7 44.4 M222.75 158.61 C250.37 127.33, 277.97 91.47, 317.96 51.45 M222.4 158.59 C254.23 120.6, 287.63 83.24, 315.26 51.69 M229.93 158.21 C245.83 136.92, 267.35 112.39, 316.86 57.48 M227.26 157.56 C257.38 124.42, 289.64 89.25, 315.82 56.76 M234.88 159.07 C255.1 132.48, 278.89 104.73, 315.87 63.2 M232.97 159.31 C266.83 121.9, 298.45 83.92, 315.86 63.16 M237.96 158.35 C262.53 127.15, 289.78 97.67, 317.32 68.97 M237.98 158.76 C258.72 136.26, 278.67 112.74, 316.9 68.69 M242.67 160.16 C259.21 139.94, 279.13 121.06, 317.57 73.24 M244.04 159.64 C266.46 131.18, 290.81 104.61, 317.28 75.37 M248.75 159.63 C267.06 137.1, 283.32 118.41, 315.45 81.34 M248.49 158.31 C274 129.16, 300.69 100.77, 315.83 82.06 M254.85 159.1 C271.64 136.88, 293.64 116.73, 318.17 85.94 M254.04 157.81 C268.03 141.27, 283.47 126.61, 316.98 86.71 M259.63 160.18 C277.08 140.26, 293.55 121.33, 315.25 95.37 M259.15 157.72 C275.21 141.22, 288.1 125.82, 315.84 92.54 M264.39 159.93 C283.08 134.25, 305.8 112, 314.95 98.5 M265.78 158.14 C276.27 145.6, 288.59 132.76, 315.87 98.68 M270.16 158.94 C286.65 138.18, 303.3 120.8, 314.94 104.9 M269.74 157.6 C283.46 144.12, 296.75 128.42, 316.65 106.17 M276.4 157.5 C285.24 143.44, 296.45 130.81, 314.74 113.69 M276.49 159.03 C291.82 140.26, 306.97 122.48, 315.59 112.6 M282.05 159.68 C290.32 147.67, 299.57 139.07, 317.6 117.87 M281.44 157.66 C289.94 148.3, 299.06 137.69, 316.99 118.33 M284.21 157.49 C295.96 147.54, 307.21 134.37, 316.49 124.81 M285.79 159 C295.5 147.58, 304.52 137.78, 317.16 124.65 M291.22 158.97 C301.66 151.15, 308.18 140.32, 318.49 129 M290.82 158.71 C300.26 147.22, 310.38 135.77, 316.04 130.49 M297.32 160.36 C302.64 150.8, 310.34 144.42, 315.42 136.26 M297.72 158.63 C301.12 153.07, 306.72 147.99, 317.04 136.35 M303.76 158.19 C305.39 155.88, 307.89 152.05, 316.38 140.58 M301.87 158.63 C304.68 154.64, 309.03 151.9, 316.7 142.97 M306.02 157.75 C309.99 156.39, 312.97 153.42, 317.26 148.33 M306.91 158.6 C310.4 154.3, 314.26 151, 315.99 147.68 M312.76 158.5 C313.72 157.17, 315.26 155.81, 316.28 154.65 M313.27 158.22 C314.14 157.34, 315.17 156.06, 316.29 154.27" stroke="#868e96" stroke-width="0.5" fill="none"></path><path d="M-0.45 1.07 C123.31 0.69, 243.98 0.72, 314.04 1.2 M0.45 0.05 C87.63 1.01, 176.57 1.45, 314.8 0.02 M315.95 -0.92 C312.55 36.74, 312.23 68.22, 312.6 156.47 M315.23 0.75 C314.84 43, 315.11 84.4, 314.47 158.5 M314.22 157.54 C199.41 158.49, 85.36 158.82, 0.11 158.84 M314.58 158.12 C230.11 159.45, 146.35 159.23, 0.53 158.66 M1.82 159.57 C0.2 113.58, 0.98 67.87, -0.18 0.05 M-0.34 158.83 C-0.13 112.69, -0.39 67.86, -0.53 -0.03" stroke="#495057" stroke-width="1" fill="none"></path></g><g stroke-linecap="round" transform="translate(34.802951724763545 279.4925331070899) rotate(0 28.821313802415688 68.3852529381179)"><path d="M1.51 1.99 C12.49 0.43, 26.64 -0.12, 59.34 -0.38 M0.07 -0.94 C14.11 -0.38, 29.64 0.4, 57.67 -0.79 M56.73 -1.06 C59.01 34.05, 55.5 69.21, 55.72 136.1 M58.4 -0.95 C58.43 53.59, 57.64 108.75, 57.75 137.41 M56.44 136.28 C42.84 136.89, 29.07 136.91, 0.62 136.1 M57.26 136.27 C37.58 136.57, 16.52 137.77, 0.38 136.62 M1.18 136.94 C-0.14 96.9, -0.73 54.94, 0.05 -0.27 M0.43 137.7 C-0.76 87.27, -0.24 35.9, -0.03 0.58" stroke="#495057" stroke-width="1" fill="none"></path></g><g id="dispenser" stroke-linecap="round" transform="translate(115.01386373694857 284.6301950482921) rotate(0 118.24979386404783 25.631863263961804)"><path d="M0 0 C0 0, 0 0, 0 0 M0 0 C0 0, 0 0, 0 0 M-0.44 6.11 C1.2 3.77, 3.28 2.38, 5.08 1.15 M0.09 6.46 C1.55 4.35, 3.45 2.12, 4.77 0.13 M-0.93 13.62 C1.54 10.09, 6.37 4.28, 9.3 1.46 M-0.17 11.55 C3.08 9.69, 5.23 6.15, 10.73 -0.15 M-1.68 19.7 C5.31 13.14, 12.34 7.02, 16.19 1.97 M-0.15 19.32 C4.22 13.68, 10.16 7.57, 15.07 0 M-1.66 25.74 C9.68 16.23, 15.69 5.87, 21.34 0.97 M0.28 23.24 C4.11 19, 9.32 14.58, 21.86 0.18 M-1.54 30.14 C8.37 22.34, 16.08 15.21, 24.9 -0.83 M-0.26 30.94 C8.88 20.41, 16.32 12.08, 26.4 0.43 M-2.08 38.65 C5.74 28.77, 13.9 18.74, 30.49 -0.98 M-0.16 37.63 C6.78 28.95, 13.45 20.45, 31.12 -1.06 M1.45 41.23 C5.84 33.05, 15.9 24.51, 35.47 1.33 M0.21 42.13 C12.5 29.65, 23.07 16.34, 37.42 -0.03 M1.21 48.37 C12.62 35.54, 23.89 25.65, 44.1 1.28 M-0.39 49.11 C8.31 38.57, 17.79 27.46, 41.97 -0.21 M2.56 54.49 C20.04 31.53, 39.64 10.56, 46.16 0.65 M0.88 52.19 C14.82 37.89, 26.97 24.15, 46.52 0.61 M7.32 53.31 C23.99 36.42, 39.76 19.04, 54.06 -0.15 M7.42 53.23 C19.75 38.14, 32.4 22.32, 52.25 0.52 M11.78 54.74 C29.83 31.61, 46.79 14.07, 57.47 2.14 M12.34 52.98 C29.32 33.82, 44.69 14.01, 57.51 -0.57 M19.02 52.74 C32.48 34.17, 52.76 12, 64.45 1.65 M18.01 52.74 C27.6 40.48, 38.99 29.67, 64.22 -0.99 M22.25 53.19 C35.81 37.72, 51.86 21.02, 68.05 -0.38 M22.55 52.07 C38.02 36.8, 54.07 18.37, 69.6 0.61 M29.95 54.02 C45.7 35.14, 57.17 16.91, 75.5 0.4 M28.19 52.71 C42.41 35.36, 57.54 19.43, 74.54 -0.78 M32.48 53.33 C49.93 34.34, 71.12 10.3, 78.76 -0.29 M33.04 52.55 C51.47 33.92, 68.37 14.09, 79.39 -0.59 M39.21 53.52 C56.66 32.92, 76.82 11.67, 83.68 0.65 M39.43 53.53 C48.97 42.51, 56.84 31.75, 84.27 -0.77 M45.16 53.44 C55.44 37.41, 67.91 25.07, 88.63 1.88 M43.74 53.61 C57.12 37.46, 68.78 22.91, 90.91 0.19 M48.09 52.45 C58.93 42.08, 68.44 26.68, 97.61 -2.26 M50.65 52.69 C66.83 32.39, 85.21 12.48, 94.9 -0.81 M55.17 54.63 C65.33 43.12, 75.32 31.66, 98.89 -1.62 M55.01 52.55 C64.9 40.38, 76.81 28.58, 101.58 0.42 M60.07 52.81 C73.89 38.59, 85.17 23.35, 106.11 -2.15 M60.14 52.77 C73.78 37.32, 86.12 21.94, 106.29 -0.65 M65.59 52.81 C80.2 34.33, 100.11 14.73, 112.95 -1.73 M65.61 52.73 C76.67 37.66, 90.11 23.96, 112.24 0.65 M72.8 53.43 C86.89 38.21, 99.06 21.23, 117.53 -1.31 M71.6 51.45 C83.37 38.73, 95.42 24.71, 116.09 0.83 M75.67 54.71 C88.3 37.53, 101.6 20.85, 120.41 -0.55 M76.68 53.63 C85.23 42.5, 93.55 31.19, 121.12 0.51 M81.49 54.69 C92.58 41.63, 101.28 29.15, 126.39 -1.43 M81.49 52.26 C97.1 34.34, 113.19 17.24, 126.28 0.55 M84.85 53.87 C101.53 32.72, 118.8 12.99, 133.06 0.6 M85.81 52.82 C97.94 39.36, 110.32 27.06, 131.87 0.74 M93.48 51.53 C106.75 37.23, 120.02 22.31, 137.39 0.82 M91.66 53.53 C106.14 35.43, 121.86 19.07, 137.33 -0.21 M96.77 54.64 C111.1 37.52, 121.7 20.56, 144.87 1.25 M96.96 51.96 C109.78 39.61, 120.33 24.9, 143.55 -0.81 M100.35 53.96 C114.45 37.68, 126.99 24.28, 148.12 -1.13 M101.36 53 C112.88 40.15, 122.94 28.47, 148.72 1.2 M107.24 52.19 C118.66 37.29, 133.62 22.14, 152.02 1.7 M108.51 52.79 C119.22 39.23, 131.57 24.59, 154.6 0.76 M112.5 52.06 C126.44 34.79, 140.5 19.25, 160.33 0.94 M111.92 52.69 C125.41 40.52, 135.52 27, 158.37 -0.52 M120.28 52.49 C134.74 36.97, 148.79 15.61, 164.84 -0.91 M119.25 53.17 C133.8 35.23, 150.54 17.53, 164.9 -0.51 M122.53 52.7 C136.44 35.51, 152.48 21.02, 167.96 2.08 M124.1 53.77 C136.68 37.05, 149.17 23.08, 168.59 -0.54 M128.07 52.34 C145.57 33.24, 164.45 15.74, 175.88 -0.62 M128.37 53.04 C143.92 34.34, 160.84 17.92, 175.71 0.49 M133.24 51.59 C145.01 39.15, 157.56 27.56, 181.16 0.14 M134.03 52.47 C148.84 35.44, 164.71 17.53, 180.12 0.05 M139.01 51.33 C151.43 42.26, 159.15 29.85, 183.86 1.31 M139.46 52.43 C155.44 35.59, 170.15 16.21, 185.7 -0.05 M145.6 53.23 C156.91 38.17, 171.64 23.29, 190.22 -0.22 M145.26 52.11 C156.07 39.13, 169.81 24.7, 190.08 0.25 M149.65 51.89 C164.11 36.52, 177.78 19.13, 197.7 0.46 M150.54 53.47 C161.15 39.75, 171.34 27.64, 196.97 -0.82 M154.77 50.95 C170.7 38.13, 181.91 22.74, 201.67 0.47 M154.75 53.13 C170.01 34.39, 184.82 16.41, 202 -0.85 M160.75 51.24 C176.61 33.87, 194.15 14.88, 208.5 1.21 M162.01 52.38 C174.18 37.47, 187.38 20.73, 207 0.58 M166.11 54.88 C183.87 33.19, 199.52 14.29, 210.2 0.52 M166.87 53.05 C177.96 40.33, 188.21 28.26, 211.83 -0.05 M173.27 53.41 C184.1 38.23, 196.72 25.07, 217.54 0.77 M170.69 53.48 C183.5 39.21, 195 25.98, 216.68 -0.36 M175.15 51.96 C185.78 42.28, 193.02 32.1, 222.68 1.02 M177.39 52.47 C187.75 41.4, 197.39 29.27, 221.91 -0.07 M180.32 53.27 C193.13 38.33, 202.95 26.51, 228.3 1.13 M181.8 53.18 C193.35 42.21, 201.97 30.07, 228.33 -1.08 M187.61 53.95 C207.47 31.37, 225.23 10.95, 234.2 1.88 M187.48 53.1 C198.17 40.19, 208.35 28.97, 233.01 0.48 M190.58 53.23 C205 40.94, 214.98 25.88, 237.13 2.63 M192.32 52.73 C205.35 37.86, 218.71 24.53, 238.32 1.63 M199.42 53.43 C210.78 38.88, 224.51 23.61, 238.09 8.64 M197.72 53.75 C210.31 38.96, 223.6 23.87, 238.36 5.84 M202.86 52.27 C218.47 37.26, 229.17 21.21, 236.01 13.95 M203.6 53.23 C210.31 44.44, 218.26 35.27, 237.9 13.58 M208.66 51.77 C217.72 42.1, 223.18 35.71, 238.47 18.06 M208.1 52.31 C214.57 45.82, 222.15 38.62, 238.21 18.85 M214.21 54.41 C222.47 45.14, 230.73 36.11, 236.16 24.99 M213.41 52.12 C220.88 44.85, 229.66 34.3, 238.79 26.08 M219.64 51.19 C226 45.48, 230.57 39.99, 236.86 31.72 M220.02 51.76 C223.88 48.49, 227.52 42.31, 238.43 32.36 M222.49 53.78 C228.93 47.03, 236.71 42.58, 237.81 37 M224.61 52.18 C230.04 47.27, 234.75 40.13, 238.89 38.07 M230.41 53.88 C232.44 50.34, 236.76 45.56, 236.93 44.77 M230.09 52.38 C232.82 49.91, 234.91 46.31, 237.11 43.18 M234.59 52.69 C235.43 51.91, 236.53 50.77, 237.67 49.78 M234.72 52.9 C235.93 52.08, 236.77 50.78, 237.31 50.1" stroke="#868e96" stroke-width="0.5" fill="none"></path><path d="M1.67 -1.35 C51.75 -2.8, 102.84 -0.08, 236.18 -0.69 M-0.79 -0.67 C54.22 -0.29, 109.12 -0.12, 235.84 -0.34 M235.44 1.74 C235.55 12.21, 235.28 26.03, 235.83 53.2 M235.55 0.8 C236.32 15.32, 237.21 30.72, 237.14 50.74 M236.09 50.8 C160.56 50.01, 84.53 50.6, -0.56 52.27 M236.08 51.84 C159.13 50.82, 83.16 50.82, -0.13 51.25 M0.17 51.57 C0.49 33.92, -0.64 17.19, -0.27 1.34 M0.93 50.9 C0.84 34.56, -0.35 17.52, 0.58 -0.41" stroke="#495057" stroke-width="1" fill="none"></path></g><g stroke-linecap="round" transform="translate(153.56160508533128 318.66312728278626) rotate(0 80.88522690535996 15.395961265970982)"><path d="M0 0 C0 0, 0 0, 0 0 M0 0 C0 0, 0 0, 0 0 M-0.55 6 C1.1 4.11, 3.7 2.3, 5.78 0.81 M-0.2 6.31 C1.21 4.73, 2.49 2.99, 4.76 0.25 M1.72 10.52 C4.07 9.59, 4.13 4.83, 12.13 -1.41 M-0.36 12.83 C4.31 8.24, 7.29 3.12, 10.52 0.44 M1.13 18.38 C7.15 12.92, 13.58 5.19, 17.26 0.43 M0.76 18.08 C6.23 12.78, 11.25 5.04, 15.29 1.19 M1.93 25.58 C9.66 14.59, 16.53 6.18, 22.3 -1.92 M-0.57 23.38 C4.83 18.89, 10.06 14.01, 21.51 -0.25 M-0.34 31.58 C9.32 21.8, 19.64 8.73, 25.12 0.53 M0.47 31.06 C6.28 22.42, 14.3 14.77, 26.39 -0.34 M4.8 31.47 C12.34 22.32, 19.74 12.06, 31.02 -1.78 M3.78 33.39 C13.31 21.34, 23 8.83, 30.93 -0.94 M6.72 31.48 C18.29 21.22, 29.49 7.53, 37.95 0.64 M7.62 33.85 C15.59 24.62, 22.78 17.89, 36.59 -0.13 M13.11 34.9 C22.94 23.42, 35.78 11.6, 43.94 -1.86 M13.84 32.24 C21.75 23.6, 29.03 14.44, 42.45 0.81 M20.08 33.86 C27.09 24.64, 36.15 10.83, 47.94 -0.15 M17.78 33.67 C26.54 23.61, 35.91 13.66, 47.9 0.55 M24.93 34.26 C32.82 26.51, 40.16 17.47, 53.18 -0.49 M24.86 32.63 C33.94 21.5, 42.41 10.72, 53.84 0.68 M30.99 33.64 C38.7 20.88, 52.03 8.64, 60.09 1.4 M29.24 34.11 C38.66 21.88, 47.47 10.74, 57.38 0.87 M35.03 31.04 C46.16 22.38, 53.76 9.72, 65.64 -1.83 M35.03 32.58 C42.42 24.58, 51.26 14.8, 62.99 -0.19 M40.11 32.92 C51.45 22.58, 61.65 7.47, 68.23 0.75 M38.99 33.16 C48.43 25.69, 54.77 17.35, 69.22 0.39 M46.97 34.95 C51.97 23.67, 57.52 18.5, 75.06 0.17 M45.66 32.55 C55.83 20.74, 67.53 8.57, 73.87 0.69 M50.91 31.99 C62.86 23.48, 69.84 9.29, 78.99 1.51 M50.13 34.21 C58.87 25.12, 66.52 15.18, 78.69 1.09 M57.14 31.87 C64.3 26.02, 70.78 16.08, 85.97 -2.27 M57.15 33.36 C64.04 23.44, 71.26 15.05, 84.54 -0.72 M61.69 33.33 C70.26 21.27, 82.42 6.41, 91.83 -0.47 M61.86 34.08 C70.28 21.74, 80.19 11.07, 90.14 -0.64 M66.08 32.62 C77.83 20.42, 84.45 12.78, 93.72 1.26 M66.32 33.05 C73.01 25.6, 80.21 16.24, 95.17 -1.12 M73.54 33.6 C81.29 24.61, 89.11 13.73, 98.99 -1.21 M71.46 32.95 C82.59 21.37, 94.2 9.04, 101.03 -0.04 M77.11 33.94 C88.09 20.54, 98.12 10.74, 104.49 -0.64 M77.07 33.75 C84.54 23.93, 92.17 15.42, 106 0.25 M82.38 31.65 C92.28 24.25, 101.04 13.35, 109.54 -0.51 M82.31 32.46 C93.24 20.04, 105.5 7.67, 111.92 0.1 M88.39 35.04 C95.42 25.9, 100.67 20.43, 114.59 -0.42 M86.41 34.29 C96.62 23.61, 105.52 11.68, 116.73 0.29 M94.95 32.52 C104.1 19.96, 113.71 6.67, 121.39 -1.97 M93.87 33.62 C104.64 19.44, 115.33 6.17, 122.44 -0.62 M99.56 34.55 C110.11 19.62, 121.21 7.84, 125.13 1.39 M97.12 33.14 C104.46 25.16, 112.7 17.28, 127.11 1.03 M104.77 31.44 C113.44 20.06, 123.59 10.01, 133.21 -1.05 M103.73 32.85 C111.58 24.7, 120.57 14.17, 133.35 -0.21 M107.06 35.28 C114.88 27.16, 121.99 16.99, 138.05 0.69 M109.07 33.18 C115.48 25.55, 123.53 15.92, 137.02 0.19 M116.21 33.81 C123.49 20.8, 130.84 13.98, 144.51 -0.97 M113.53 34 C124.06 22.19, 132.17 12.2, 142.45 -0.25 M120.16 32.25 C125.45 24.42, 133.66 18.53, 146.76 -1.16 M119.19 33.7 C127.65 23.04, 137.16 13.31, 149.09 0.13 M124.42 31.24 C135.95 20.11, 147.24 5.28, 155.63 -0.79 M125.03 32.29 C134.88 21.53, 143.61 12.35, 154.7 0.08 M128.92 32.65 C139.32 19.83, 151.34 10.61, 159.5 -0.61 M129.56 34.39 C140.84 21.54, 150.84 10.48, 158.04 0.62 M135.39 33.51 C144.67 23.65, 148.25 16.94, 162.38 2.13 M136.07 32.37 C142.01 26.35, 148.29 19.3, 162.78 1.51 M140.23 31.86 C146.55 25.55, 155.66 16.15, 165.4 6.84 M141.3 33.35 C147.45 23.5, 156.56 14.88, 162.78 7.63 M145.9 32.61 C150.91 29.47, 157.31 23.1, 162.83 14.15 M146.6 32.29 C150.93 27.87, 157.54 21.88, 163.94 12.72 M149.92 33.44 C153.1 31.37, 157.04 26.83, 162.97 20.3 M150.71 33.1 C154.59 29.6, 157.76 24.99, 162.89 19.07 M156.2 33.84 C159.62 30.17, 161.4 27.1, 164.16 25.83 M156.74 33.25 C159.87 29.85, 161.74 27.08, 163.48 25.31" stroke="#868e96" stroke-width="0.5" fill="none"></path><path d="M-1.61 0.25 C41.86 -1.91, 88.53 -1.99, 160.94 -1.41 M-0.8 -0.02 C58.66 2.28, 117.7 0.73, 161.36 -0.27 M163.51 -1.38 C159.86 10.19, 159.71 23.02, 163.71 30.76 M162.57 -0.68 C162.01 12.44, 162.11 25.1, 161.24 31.01 M161.22 30.93 C113.62 30.55, 66.25 29.73, 1.2 31.3 M162.46 30.33 C106.27 30.72, 50.4 29.83, -0.01 31.12 M0.31 31.75 C-0.46 18.57, -0.13 6.43, 1.34 0.58 M-0.36 31.46 C0.02 22.08, -0.16 15, -0.41 0.02" stroke="#495057" stroke-width="1" fill="none"></path></g><g id="purchase" stroke-linecap="round" transform="translate(48.29151521380351 332.8895079123049) rotate(0 13.442992049585172 13.442992049584973)"><path d="M1.29 7.75 C1.29 7.75, 1.29 7.75, 1.29 7.75 M1.29 7.75 C1.29 7.75, 1.29 7.75, 1.29 7.75 M0.98 15.01 C4.01 10.07, 9.58 7.13, 10.73 1.63 M1.46 14.84 C3.2 11.64, 6.52 7.55, 11.22 3.2 M2.82 19.01 C8.73 13.03, 14.01 6.97, 16.72 0.95 M3.81 17.64 C7.93 14.14, 9.99 9.82, 18.04 1.83 M5.24 20.58 C8.29 16.07, 12.75 9.61, 19.51 5.52 M4.29 20.83 C9.13 17.04, 12.17 13.91, 20.47 2.93 M4.94 26.03 C13.52 18.69, 22.56 7.99, 22.97 6.67 M7.54 26.08 C12.78 19.67, 17.78 13.78, 24.49 6.3 M11.6 25.82 C14.66 23.52, 21.17 15.58, 25.61 9.7 M11.29 26.95 C17.68 18.96, 22.51 12.9, 27.55 7.2 M16.99 28.23 C18.94 24.19, 21.61 22.09, 25.39 14.92 M16.84 26.73 C19.37 23, 23.26 18.39, 26.41 15.56" stroke="#868e96" stroke-width="0.5" fill="none"></path><path d="M8.15 0.59 C10.52 -0.64, 14.03 0.48, 16.82 1.27 C19.61 2.06, 23.35 2.99, 24.88 5.32 C26.4 7.65, 26.39 12.09, 25.96 15.23 C25.54 18.36, 24.31 22.34, 22.32 24.15 C20.33 25.96, 16.93 26.14, 14.01 26.08 C11.09 26.03, 6.96 25.51, 4.81 23.81 C2.67 22.1, 1.79 18.47, 1.16 15.85 C0.52 13.23, -0.29 10.77, 1.01 8.07 C2.32 5.37, 7.44 1.08, 8.98 -0.35 C10.53 -1.77, 10.15 -1.01, 10.27 -0.48 M11.92 1.21 C14.25 0.83, 18.48 1.44, 20.99 3.1 C23.5 4.77, 26.13 8.48, 26.98 11.18 C27.83 13.87, 27.52 16.82, 26.1 19.29 C24.67 21.76, 21.46 24.93, 18.45 26 C15.44 27.08, 10.87 26.68, 8.03 25.74 C5.2 24.8, 2.75 22.75, 1.43 20.35 C0.12 17.95, -0.5 14.26, 0.13 11.32 C0.76 8.38, 2.84 4.53, 5.2 2.7 C7.55 0.88, 12.78 0.88, 14.25 0.38 C15.72 -0.12, 14.31 -0.64, 14.03 -0.3" stroke="#495057" stroke-width="1" fill="none"></path></g><g stroke-linecap="round" transform="translate(41.0880559042709 302.11681083138774) rotate(0 21.539852242112573 4.723829253090571)"><path d="M0 0 C0 0, 0 0, 0 0 M0 0 C0 0, 0 0, 0 0 M-0.7 6.2 C1.55 4.84, 3.47 3.52, 4.67 0.53 M-0.15 6.35 C1.79 3.85, 3.57 1.62, 4.77 -0.03 M2.53 10.93 C2.36 6.99, 6.94 4.48, 11.68 -0.41 M1.63 11.14 C3.27 7.75, 6.23 5.3, 11.22 -0.53 M7.19 11.82 C9.44 8.94, 11.61 6.26, 16.39 0.63 M7 11.43 C9.23 7.4, 11.58 5.24, 16.15 -0.11 M13.01 10.08 C14.07 8.33, 16.46 4.83, 20.15 0.06 M12.04 10.6 C15.31 7.8, 17.88 4.06, 21.55 0.1 M17.36 11.85 C20.38 7.51, 20.39 6.26, 25.74 -0.11 M16.55 10.74 C19.78 8.02, 22.14 4.58, 26.25 0.78 M23.33 9.69 C24.28 7.35, 25.84 4.95, 32.64 -1.04 M22.6 10.47 C25.01 6.63, 27.64 3.31, 32.35 0.21 M27.59 10.9 C31.46 6.06, 35.23 3.45, 36.07 -1.13 M27.87 10.28 C30.87 7.92, 33.18 4.02, 37.19 -0.31 M32.69 11.81 C38.13 7.57, 41.1 1.39, 42.15 0.67 M33.61 10.1 C35.67 7.23, 38.28 5.4, 42.65 -0.42 M37.85 11.84 C40.24 7.14, 43.53 4.78, 45.38 1.99 M38.04 10.5 C40.38 8.33, 41.92 7.14, 45.25 2.74" stroke="#868e96" stroke-width="0.5" fill="none"></path><path d="M-1.56 -0.3 C18.9 -0.43, 33.59 -1.47, 44.35 0.14 M-0.17 0.77 C8.91 -0.78, 17.36 -0.27, 43.93 -0.46 M42.24 -0.78 C42.25 2.02, 44.08 4.66, 44 10.16 M43.09 0.1 C43.21 2.24, 42.91 3.97, 43.07 9.16 M43 9.61 C31.83 8.81, 20.54 9.99, 0.91 8.68 M43.45 10.19 C32.7 9.1, 21.55 9.58, 0.91 10.04 M-0.13 9.36 C0.01 6.4, 0.62 3.89, -0.32 0.41 M0.07 9.2 C0.02 6.01, -0.16 2.03, 0.42 0.39" stroke="#495057" stroke-width="1" fill="none"></path></g><g id="addCoke" stroke-linecap="round" transform="translate(48.50823847984492 375.79825476642236) rotate(0 13.442992049585172 13.442992049584973)"><path d="M1.74 6.82 C1.74 6.82, 1.74 6.82, 1.74 6.82 M1.74 6.82 C1.74 6.82, 1.74 6.82, 1.74 6.82 M0.18 14 C4.86 12.24, 5.87 6.66, 10.71 3.08 M0.49 14.54 C5.23 8.62, 9.18 5.02, 11.75 2.28 M4.33 17.65 C8.86 12.41, 11.71 6.38, 14.77 2.02 M4.74 17.1 C6.68 13.03, 11.07 9.24, 15.46 3.26 M2.44 22.44 C7.42 15.46, 12.09 13.73, 18.74 4.92 M4.52 22.13 C10.09 16.43, 14.56 9.64, 21.63 3.63 M7.63 25.28 C15.87 15.67, 18.71 11.34, 23.61 7.08 M8.74 24.16 C14.1 17.65, 19.29 11.68, 23.3 6.8 M10.94 27.7 C19.01 17.99, 21.48 14.07, 28.83 9.2 M12.11 25.05 C15.02 21.17, 20.08 15.34, 26.63 7.81 M15.71 27.51 C19.65 23.93, 21.23 18.92, 28.06 14.64 M14.76 27.95 C19.2 22.62, 23.67 18.26, 27.6 13.6" stroke="#868e96" stroke-width="0.5" fill="none"></path><path d="M18.26 1.82 C20.87 2.7, 24.39 4.18, 25.62 6.66 C26.86 9.15, 26.42 13.66, 25.67 16.74 C24.92 19.81, 23.32 23.57, 21.12 25.12 C18.92 26.67, 15.39 26.45, 12.47 26.06 C9.56 25.67, 5.58 24.75, 3.65 22.8 C1.73 20.84, 1.22 17.01, 0.91 14.33 C0.61 11.66, 0.44 9.2, 1.8 6.75 C3.17 4.3, 6.2 0.62, 9.1 -0.38 C12 -1.38, 17.3 0.11, 19.21 0.77 C21.12 1.42, 20.54 3.03, 20.57 3.55 M17.37 0.96 C20.27 1.63, 23.88 4.8, 25.58 7.2 C27.29 9.6, 28.15 12.56, 27.58 15.35 C27 18.14, 24.69 22.07, 22.12 23.93 C19.55 25.79, 15.18 26.57, 12.17 26.51 C9.17 26.46, 6.12 25.44, 4.11 23.61 C2.1 21.78, 0.36 18.48, 0.09 15.53 C-0.19 12.58, 0.79 8.31, 2.46 5.9 C4.12 3.49, 7.32 1.99, 10.09 1.07 C12.86 0.15, 17.83 0.18, 19.07 0.37 C20.31 0.56, 17.85 1.83, 17.53 2.22" stroke="#495057" stroke-width="1" fill="none"></path></g><g transform="translate(51.539107325203474 371.4451699274632) rotate(0 9.5 17.5)"><text x="9.5" y="25" font-family="Virgil, Segoe UI Emoji" font-size="28px" fill="#495057" text-anchor="middle" style="white-space: pre;" direction="ltr">+</text></g><g transform="translate(54.79546896557599 329.1797275505978) rotate(0 6.5 17.5)"><text x="6.5" y="25" font-family="Virgil, Segoe UI Emoji" font-size="28px" fill="#495057" text-anchor="middle" style="white-space: pre;" direction="ltr">-</text></g><g stroke-linecap="round" transform="translate(10 512.0575898072566) rotate(0 184.87637154007984 7.929728762521336)"><path d="M-0.07 2.59 C-0.07 2.59, -0.07 2.59, -0.07 2.59 M-0.07 2.59 C-0.07 2.59, -0.07 2.59, -0.07 2.59 M0.33 8.24 C0.87 7.16, 3.3 4.38, 6.23 1.44 M0.33 8.24 C2.55 5.84, 4.74 2.91, 6.23 1.44 M1.38 13.12 C4.6 9.29, 5.51 6.48, 11.22 1.8 M1.38 13.12 C4.85 8.68, 8.32 3.82, 11.22 1.8 M4.4 15.75 C9.97 10.4, 15.71 3.48, 16.86 1.41 M4.4 15.75 C9.38 10.94, 13.43 5.94, 16.86 1.41 M9.38 16.11 C13.64 13.79, 15.2 7.38, 21.85 1.77 M9.38 16.11 C14.84 9.8, 19.02 5.2, 21.85 1.77 M15.03 15.71 C18.83 12.38, 21.16 8.5, 27.49 1.37 M15.03 15.71 C19.55 10.02, 23.31 6.39, 27.49 1.37 M20.01 16.07 C25.61 12.6, 27.61 7.29, 32.48 1.73 M20.01 16.07 C23.7 10.59, 27.27 6.32, 32.48 1.73 M25.66 15.68 C27.85 12.91, 31.09 8.81, 37.47 2.09 M25.66 15.68 C28.85 12.46, 32.22 8.28, 37.47 2.09 M30.64 16.04 C34.09 12.31, 37.93 8.71, 43.11 1.7 M30.64 16.04 C34.4 11.15, 38.14 5.73, 43.11 1.7 M35.63 16.4 C40.69 12.41, 44.37 6.63, 48.1 2.06 M35.63 16.4 C37.63 12.34, 41.1 9.93, 48.1 2.06 M41.27 16 C46.85 10.86, 47.75 5.35, 53.74 1.66 M41.27 16 C46.68 10.65, 50.82 4.39, 53.74 1.66 M46.26 16.36 C51.87 11.47, 55.02 5.39, 58.73 2.02 M46.26 16.36 C49.97 11.62, 53.61 9.08, 58.73 2.02 M51.9 15.97 C56.31 13, 59.93 4.52, 64.37 1.63 M51.9 15.97 C55.85 10.1, 60.97 4.29, 64.37 1.63 M56.89 16.33 C60.95 13.66, 61.55 11.19, 69.36 1.99 M56.89 16.33 C60.85 11.8, 64.13 9.35, 69.36 1.99 M62.53 15.94 C66.71 12.41, 69.01 7.32, 75 1.6 M62.53 15.94 C66.45 10.68, 70.46 6.75, 75 1.6 M67.52 16.3 C72.93 12.59, 76.64 6.62, 79.99 1.96 M67.52 16.3 C70.49 12.37, 74.7 9.38, 79.99 1.96 M73.16 15.9 C75.38 14, 80.48 8.1, 85.63 1.56 M73.16 15.9 C76.74 12.53, 80.13 8.42, 85.63 1.56 M78.15 16.26 C81.01 13.14, 86.26 10, 90.62 1.92 M78.15 16.26 C81.1 10.74, 85.19 6.34, 90.62 1.92 M83.8 15.87 C87.16 11.86, 90.93 10.45, 96.26 1.53 M83.8 15.87 C87.43 10.28, 92.19 5.29, 96.26 1.53 M88.78 16.23 C90.44 11.77, 92.22 10.81, 101.25 1.89 M88.78 16.23 C91.98 11.54, 95.89 9.05, 101.25 1.89 M94.43 15.83 C100.83 11.55, 104.98 3.89, 106.89 1.49 M94.43 15.83 C98.51 11.58, 102.1 7.48, 106.89 1.49 M99.41 16.19 C103.03 12.77, 109.5 5.06, 111.88 1.85 M99.41 16.19 C102.57 11.83, 108.06 6.03, 111.88 1.85 M105.06 15.8 C107.28 12.35, 110.68 7.92, 117.52 1.46 M105.06 15.8 C109.83 10.46, 115.37 3.98, 117.52 1.46 M110.04 16.16 C111.13 13.05, 114.69 7.67, 122.51 1.82 M110.04 16.16 C114.79 12.05, 118.69 7.87, 122.51 1.82 M115.69 15.76 C117.85 13.4, 122.87 7.69, 128.15 1.42 M115.69 15.76 C119.15 11.13, 123.08 7.46, 128.15 1.42 M120.67 16.12 C122.1 13.51, 125.98 9.57, 133.14 1.78 M120.67 16.12 C123.38 12.49, 127.29 9.45, 133.14 1.78 M126.32 15.73 C129.85 12.19, 134.92 5.91, 138.78 1.39 M126.32 15.73 C130.57 10.77, 134.77 4.64, 138.78 1.39 M131.3 16.09 C133.83 10.3, 139.6 6.05, 143.77 1.75 M131.3 16.09 C135.68 11.27, 139.15 7.89, 143.77 1.75 M136.95 15.69 C139.68 9.37, 144.27 7.62, 148.75 2.11 M136.95 15.69 C140.76 11.34, 146.2 5.54, 148.75 2.11 M141.93 16.05 C147.34 9.26, 150.01 7.49, 154.4 1.71 M141.93 16.05 C144.66 11.91, 149.27 8.24, 154.4 1.71 M147.58 15.66 C151.72 9.54, 154.72 8.38, 159.38 2.07 M147.58 15.66 C150.88 12.04, 153.76 9.78, 159.38 2.07 M152.56 16.02 C155.68 9.57, 162.77 5.78, 165.03 1.68 M152.56 16.02 C157.06 11.01, 162.09 4.45, 165.03 1.68 M157.55 16.38 C162.21 11.07, 167.54 6.39, 170.01 2.04 M157.55 16.38 C161.75 10.04, 166.4 5.01, 170.01 2.04 M163.19 15.99 C168.05 10.62, 170.58 6.94, 175.66 1.65 M163.19 15.99 C166.57 11.69, 171.22 7.15, 175.66 1.65 M168.18 16.35 C173.89 10.82, 175.41 6.14, 180.64 2.01 M168.18 16.35 C172.4 11.91, 174.15 8.92, 180.64 2.01 M173.82 15.95 C177.93 9.13, 183.42 7.25, 186.29 1.61 M173.82 15.95 C178.76 11.15, 181.59 7.37, 186.29 1.61 M178.81 16.31 C181.94 10.03, 185.56 5.93, 191.27 1.97 M178.81 16.31 C183.05 11.05, 185.69 6.85, 191.27 1.97 M184.45 15.92 C190.37 10.9, 193.95 7.93, 196.92 1.58 M184.45 15.92 C188.92 11.18, 190.67 7.99, 196.92 1.58 M189.44 16.28 C193.55 10.64, 196.88 5.89, 201.91 1.94 M189.44 16.28 C193.93 10.97, 197.2 6, 201.91 1.94 M195.08 15.88 C201.31 12.09, 205.99 5.91, 207.55 1.54 M195.08 15.88 C197.62 13.86, 199.47 9.96, 207.55 1.54 M200.07 16.24 C204.31 12.25, 205.72 10.62, 212.54 1.9 M200.07 16.24 C205.28 10.6, 208.19 7.19, 212.54 1.9 M205.71 15.85 C209.38 11.06, 214.83 8.46, 218.18 1.51 M205.71 15.85 C209.38 9.89, 213.72 5.32, 218.18 1.51 M210.7 16.21 C213.07 10.77, 217.98 5.84, 223.17 1.87 M210.7 16.21 C215.14 10.72, 220.6 6.56, 223.17 1.87 M216.34 15.81 C220.26 12.07, 221.65 6.54, 228.81 1.47 M216.34 15.81 C220.51 11.02, 223.06 6.87, 228.81 1.47 M221.33 16.17 C227.97 10.29, 232.65 6.51, 233.8 1.83 M221.33 16.17 C226.37 10.1, 230.64 5.07, 233.8 1.83 M226.97 15.78 C232.72 10.49, 237.26 7.5, 239.44 1.44 M226.97 15.78 C231.42 11.85, 234.57 7.04, 239.44 1.44 M231.96 16.14 C235.81 14.53, 238.91 8.35, 244.43 1.8 M231.96 16.14 C236.11 12.04, 239.12 7.35, 244.43 1.8 M237.6 15.74 C238.24 12.25, 242.61 10.85, 250.07 1.4 M237.6 15.74 C241.64 10.17, 247.78 4.9, 250.07 1.4 M242.59 16.1 C245.48 12.03, 253.05 4.25, 255.06 1.76 M242.59 16.1 C244.74 13.05, 249.02 8.53, 255.06 1.76 M248.23 15.71 C251.19 11.01, 256.71 6.26, 260.7 1.37 M248.23 15.71 C251.69 10.98, 255.17 7.37, 260.7 1.37 M253.22 16.07 C255.15 12.89, 260.7 7.97, 265.69 1.73 M253.22 16.07 C256.12 11.49, 260.64 7.63, 265.69 1.73 M258.86 15.67 C263.38 12.52, 265.96 6.88, 270.67 2.09 M258.86 15.67 C260.72 13.47, 263.66 10.6, 270.67 2.09 M263.85 16.03 C268.27 9.19, 271.7 5.69, 276.32 1.7 M263.85 16.03 C269.43 10.2, 273.63 4.48, 276.32 1.7 M268.84 16.39 C271.55 12.34, 277.56 6.43, 281.3 2.06 M268.84 16.39 C274.03 10.73, 277.66 5.53, 281.3 2.06 M274.48 16 C276.56 11.68, 281.92 10.11, 286.95 1.66 M274.48 16 C277.28 11.49, 281.31 8.05, 286.95 1.66 M279.47 16.36 C283.37 13.58, 286.09 7.69, 291.93 2.02 M279.47 16.36 C282.47 11.79, 285.84 9.26, 291.93 2.02 M285.11 15.97 C290.02 11.91, 291.54 8.06, 297.58 1.63 M285.11 15.97 C290.25 10.43, 293.78 4.93, 297.58 1.63 M290.1 16.33 C293.43 14.94, 295.3 9.3, 302.56 1.99 M290.1 16.33 C294.06 11.03, 297.27 7.95, 302.56 1.99 M295.74 15.93 C297.43 13.19, 302.57 10.67, 308.21 1.59 M295.74 15.93 C299.75 11.1, 302.95 8.02, 308.21 1.59 M300.73 16.29 C303.27 13.06, 306.91 8.73, 313.19 1.95 M300.73 16.29 C304.05 13.97, 305.89 10.2, 313.19 1.95 M306.37 15.9 C311.55 10.84, 313.11 5.93, 318.84 1.56 M306.37 15.9 C309.49 11.78, 313.1 8.39, 318.84 1.56 M311.36 16.26 C315.79 11.27, 319.13 7.87, 323.82 1.92 M311.36 16.26 C316.05 10.68, 319.74 5.88, 323.82 1.92 M317 15.86 C321.72 12.87, 323.45 7.97, 329.47 1.52 M317 15.86 C320.39 11.2, 324.69 8.09, 329.47 1.52 M321.99 16.22 C325.14 12.37, 330.43 6.74, 334.45 1.88 M321.99 16.22 C325.71 13.21, 328.53 9.45, 334.45 1.88 M327.63 15.83 C329.55 12.9, 336.01 7.09, 340.1 1.49 M327.63 15.83 C332.48 10.11, 335.62 5.7, 340.1 1.49 M332.62 16.19 C336.7 11.27, 344.24 3.84, 345.08 1.85 M332.62 16.19 C337.97 10.76, 342.01 5.44, 345.08 1.85 M338.26 15.79 C343.81 12.68, 347.88 6.61, 350.73 1.45 M338.26 15.79 C341.4 12.13, 345.94 7.51, 350.73 1.45 M343.25 16.15 C349.3 11.45, 353.79 5.74, 355.71 1.81 M343.25 16.15 C347.58 11.71, 350.65 8.7, 355.71 1.81 M348.89 15.76 C353.51 12.2, 356.81 7.23, 361.36 1.42 M348.89 15.76 C352.58 11.7, 355.52 8.9, 361.36 1.42 M353.88 16.12 C358.57 12.34, 362.04 5.8, 367 1.02 M353.88 16.12 C358.53 12.09, 360.6 7.79, 367 1.02 M359.52 15.72 C361.09 10.9, 365.84 8.52, 370.67 2.89 M359.52 15.72 C362.62 13.73, 363.68 11.3, 370.67 2.89 M364.51 16.08 C366.45 14.81, 368.78 12.61, 370.41 9.29 M364.51 16.08 C366.21 14.8, 367.7 13.03, 370.41 9.29 M1.37 15.19 C1.37 15.19, 1.37 15.19, 1.37 15.19 M1.37 15.19 C1.37 15.19, 1.37 15.19, 1.37 15.19 M5.5 13.49 C4.59 12.08, 2.95 11.02, 1.73 10.21 M5.5 13.49 C4.37 12.49, 3.64 12.03, 1.73 10.21 M11.9 13.75 C8.88 12.16, 6.88 9.76, 2.09 5.22 M11.9 13.75 C8.21 10.54, 5.29 7.77, 2.09 5.22 M18.3 14.01 C12.32 7.8, 6.59 3.44, 2.45 0.23 M18.3 14.01 C12.1 9.71, 7.06 4.92, 2.45 0.23 M23.94 13.62 C17.87 6.71, 10.63 4.86, 5.83 -2.13 M23.94 13.62 C17.04 6.9, 9.22 0.48, 5.83 -2.13 M30.34 13.88 C24.52 11.79, 21.31 7.32, 12.22 -1.87 M30.34 13.88 C25.22 8.7, 19.45 3.81, 12.22 -1.87 M35.98 13.48 C28.67 5.83, 22.39 2.24, 17.87 -2.26 M35.98 13.48 C30.63 8.9, 26.95 5.34, 17.87 -2.26 M42.38 13.74 C37.32 6.99, 29.69 1.37, 24.26 -2 M42.38 13.74 C37.17 9.93, 34.68 6.75, 24.26 -2 M48.78 14.01 C43.58 8.93, 36.38 5.71, 29.91 -2.4 M48.78 14.01 C44.49 11.2, 40.21 7.13, 29.91 -2.4 M54.42 13.61 C47.89 10.17, 43.14 2.52, 36.31 -2.13 M54.42 13.61 C48.34 9.93, 44.16 3.72, 36.31 -2.13 M60.82 13.87 C57.06 10.12, 50.83 6.33, 42.7 -1.87 M60.82 13.87 C55.48 10.1, 52.21 5.54, 42.7 -1.87 M66.46 13.48 C61.88 8.88, 58.31 8.43, 48.35 -2.27 M66.46 13.48 C61.17 9.31, 56.79 5.4, 48.35 -2.27 M72.86 13.74 C67.38 10.58, 63.07 5.3, 54.74 -2.01 M72.86 13.74 C66.69 8.49, 58.5 1.08, 54.74 -2.01 M79.25 14 C72.4 8.65, 66.09 1.95, 60.39 -2.4 M79.25 14 C72.44 9.03, 65.66 1.81, 60.39 -2.4 M84.9 13.61 C82.52 10.92, 77.55 8.24, 66.78 -2.14 M84.9 13.61 C78.8 6.9, 71.68 0.83, 66.78 -2.14 M91.3 13.87 C88.11 9.39, 83.31 8.57, 73.18 -1.88 M91.3 13.87 C86.88 10.69, 82.76 6.78, 73.18 -1.88 M96.94 13.47 C89.84 10.03, 87.16 4.76, 78.83 -2.27 M96.94 13.47 C92.35 9.73, 87.62 5.55, 78.83 -2.27 M103.34 13.73 C95.75 9, 88.17 2, 85.22 -2.01 M103.34 13.73 C97.7 9.67, 93.76 5.44, 85.22 -2.01 M109.73 14 C103.34 7.9, 95.36 0.7, 90.87 -2.41 M109.73 14 C103.08 8.43, 97.02 1.68, 90.87 -2.41 M115.38 13.6 C110.08 8.83, 108.49 5.95, 97.26 -2.14 M115.38 13.6 C111.04 9.36, 106.21 4.06, 97.26 -2.14 M121.78 13.86 C114.13 6.32, 109.06 2.56, 103.66 -1.88 M121.78 13.86 C116.07 9.5, 110.67 5.4, 103.66 -1.88 M127.42 13.47 C122.7 9.96, 117.66 3.33, 109.31 -2.28 M127.42 13.47 C123.71 9.21, 117.83 5.16, 109.31 -2.28 M133.82 13.73 C129.21 9.89, 122.06 2.46, 115.7 -2.02 M133.82 13.73 C127.86 7.99, 119.89 2.58, 115.7 -2.02 M140.21 13.99 C130.82 7.62, 123.97 3.05, 121.35 -2.41 M140.21 13.99 C134.49 9.28, 127.35 3.2, 121.35 -2.41 M145.86 13.6 C142.14 8.04, 136.64 3.33, 127.74 -2.15 M145.86 13.6 C141.19 10.98, 138.91 7.8, 127.74 -2.15 M152.25 13.86 C149.39 11.17, 141.02 6.98, 134.14 -1.89 M152.25 13.86 C146.1 7.25, 139.13 3.06, 134.14 -1.89 M157.9 13.46 C149.8 7.7, 143.5 3.32, 139.78 -2.28 M157.9 13.46 C153.33 8.84, 147.32 4.1, 139.78 -2.28 M164.3 13.73 C160.93 9.38, 152.41 4.85, 146.18 -2.02 M164.3 13.73 C160.7 9.97, 156.74 6.99, 146.18 -2.02 M170.69 13.99 C162.73 8.42, 158.49 3.44, 151.83 -2.41 M170.69 13.99 C163.27 8.12, 157.77 2.2, 151.83 -2.41 M176.34 13.59 C174.48 9.5, 167.08 6.04, 158.22 -2.15 M176.34 13.59 C170.18 8.59, 164.64 3.72, 158.22 -2.15 M182.73 13.85 C177.24 11.55, 173.59 5.39, 164.62 -1.89 M182.73 13.85 C175.48 9.38, 171.06 3.78, 164.62 -1.89 M188.38 13.46 C182.48 7.19, 176.94 1.24, 170.26 -2.29 M188.38 13.46 C181.66 7.2, 176.14 2.87, 170.26 -2.29 M194.78 13.72 C189.95 8.16, 181.2 1.91, 176.66 -2.03 M194.78 13.72 C189.13 8.84, 182.58 2.76, 176.66 -2.03 M201.17 13.98 C198.69 8.98, 192.25 7.12, 182.31 -2.42 M201.17 13.98 C196.2 8.29, 189.93 4.68, 182.31 -2.42 M206.82 13.59 C203.47 9.16, 195.79 3.36, 188.7 -2.16 M206.82 13.59 C200.66 8.35, 194.92 3.94, 188.7 -2.16 M213.21 13.85 C207.73 10.74, 203.48 5.16, 195.1 -1.9 M213.21 13.85 C208.86 9.93, 203.06 5.36, 195.1 -1.9 M218.86 13.45 C210.96 9.89, 204.57 4.77, 200.74 -2.29 M218.86 13.45 C213.29 9.87, 208.64 3.98, 200.74 -2.29 M225.25 13.72 C220.92 11.18, 216.31 6.89, 207.14 -2.03 M225.25 13.72 C219.62 7.85, 213.4 3.11, 207.14 -2.03 M231.65 13.98 C224.84 6.69, 217.52 4.41, 212.78 -2.42 M231.65 13.98 C225.41 8.76, 218.48 3.85, 212.78 -2.42 M237.3 13.58 C229.41 6.58, 224.5 2.34, 219.18 -2.16 M237.3 13.58 C233.46 9.76, 229.03 5.98, 219.18 -2.16 M243.69 13.84 C238.57 8.9, 232 4.41, 225.58 -1.9 M243.69 13.84 C236.45 7.18, 229.96 0.55, 225.58 -1.9 M249.34 13.45 C241.08 6.93, 236.3 4.03, 231.22 -2.3 M249.34 13.45 C244.36 9.18, 237.24 3.71, 231.22 -2.3 M255.73 13.71 C249.24 9.49, 244.03 5.39, 237.62 -2.03 M255.73 13.71 C249.89 9.25, 244.33 4.83, 237.62 -2.03 M262.13 13.97 C255.99 8.35, 251.45 6.81, 243.26 -2.43 M262.13 13.97 C255.28 7.7, 248.31 2.95, 243.26 -2.43 M267.77 13.58 C261.49 10.68, 255.46 4.02, 249.66 -2.17 M267.77 13.58 C262.24 8.53, 256.79 4.61, 249.66 -2.17 M274.17 13.84 C267.65 6.49, 263.05 1.2, 256.06 -1.91 M274.17 13.84 C268.69 8.95, 264.39 4.83, 256.06 -1.91 M279.82 13.44 C272.89 8.96, 269.02 2.38, 261.7 -2.3 M279.82 13.44 C274.66 10.49, 271.37 4.95, 261.7 -2.3 M286.21 13.71 C280.8 8.12, 272.21 0.76, 268.1 -2.04 M286.21 13.71 C278.8 7.46, 273.57 2.47, 268.1 -2.04 M292.61 13.97 C289.15 10.21, 284.36 8.89, 273.74 -2.43 M292.61 13.97 C284.89 7.3, 278.32 2.23, 273.74 -2.43 M298.25 13.57 C290.5 8.5, 286.28 3.74, 280.14 -2.17 M298.25 13.57 C292.02 8.95, 287.41 4.1, 280.14 -2.17 M304.65 13.83 C297.4 8.07, 292.79 3.01, 286.54 -1.91 M304.65 13.83 C299.02 9.46, 293.37 4.68, 286.54 -1.91 M310.3 13.44 C303.2 6.77, 298.91 3.55, 292.18 -2.31 M310.3 13.44 C306.89 10.42, 301.44 6.26, 292.18 -2.31 M316.69 13.7 C311.16 10.47, 306.56 3.36, 298.58 -2.04 M316.69 13.7 C311.57 10, 307.36 5.37, 298.58 -2.04 M323.09 13.96 C315.75 7.06, 312.26 4.22, 304.22 -2.44 M323.09 13.96 C317.85 8.83, 311.82 4, 304.22 -2.44 M328.73 13.57 C320.49 8.31, 317.11 3.68, 310.62 -2.18 M328.73 13.57 C324 8.35, 317.93 5, 310.62 -2.18 M335.13 13.83 C329.93 12.02, 329.48 8.55, 317.02 -1.92 M335.13 13.83 C329.25 9.64, 324.22 3.55, 317.02 -1.92 M340.77 13.43 C335.83 9.63, 327.88 1.23, 322.66 -2.31 M340.77 13.43 C334.19 7.23, 328.04 2.46, 322.66 -2.31 M347.17 13.7 C340.66 9.16, 336.57 6.51, 329.06 -2.05 M347.17 13.7 C342.99 9.45, 338.12 5.44, 329.06 -2.05 M353.57 13.96 C344.67 8.73, 340.79 2.04, 334.7 -2.44 M353.57 13.96 C350.55 11.2, 345.83 6.66, 334.7 -2.44 M359.21 13.56 C355.85 9.77, 351.45 5.61, 341.1 -2.18 M359.21 13.56 C352.87 7.99, 347.23 3.78, 341.1 -2.18 M366.37 14.48 C358.78 6.59, 351.05 2.96, 347.5 -1.92 M366.37 14.48 C361.18 8.67, 355.84 4.41, 347.5 -1.92 M370.5 12.77 C366.24 8.67, 362.29 5.15, 353.14 -2.32 M370.5 12.77 C366.45 10.45, 363.17 7.03, 353.14 -2.32 M372.37 9.1 C368.23 7.2, 365.67 5.32, 359.54 -2.05 M372.37 9.1 C367.01 5.3, 363.18 0.16, 359.54 -2.05" stroke="#868e96" stroke-width="0.5" fill="none"></path><path d="M3.96 0 M3.96 0 C129.61 1.05, 258.4 0.61, 365.79 0 M3.96 0 C146.3 1.92, 290.13 2.14, 365.79 0 M365.79 0 C368.93 -1.34, 368.71 2.25, 369.75 3.96 M365.79 0 C370.01 -0.15, 370.8 2.96, 369.75 3.96 M369.75 3.96 C369.2 6.92, 370.32 10.63, 369.75 11.89 M369.75 3.96 C369.6 5.66, 369.46 7.4, 369.75 11.89 M369.75 11.89 C371.62 13.24, 369.62 14.98, 365.79 15.86 M369.75 11.89 C371.81 15.51, 368.31 16.21, 365.79 15.86 M365.79 15.86 C252.66 18.02, 137.75 16.89, 3.96 15.86 M365.79 15.86 C289.7 15.96, 213.04 16.2, 3.96 15.86 M3.96 15.86 C3.27 14.16, -1.34 16.28, 0 11.89 M3.96 15.86 C-0.03 17.53, -1.88 16.54, 0 11.89 M0 11.89 C0.29 9.19, 0.35 7.56, 0 3.96 M0 11.89 C-0.14 8.75, -0.29 5.99, 0 3.96 M0 3.96 C0.73 -0.48, 0.47 -1.19, 3.96 0 M0 3.96 C-1.24 1.46, 1.65 -0.39, 3.96 0" stroke="#495057" stroke-width="1" fill="none"></path></g></svg>